<?xml version="1.0" standalone="no"?>
<!DOCTYPE svg PUBLIC "-//W3C//DTD SVG 20010904//EN"
 "http://www.w3.org/TR/2001/REC-SVG-20010904/DTD/svg10.dtd">
<svg version="1.0" xmlns="http://www.w3.org/2000/svg"
 width="500.000000pt" height="500.000000pt" viewBox="0 0 500.000000 500.000000"
 preserveAspectRatio="xMidYMid meet">
<metadata>
Created by potrace 1.11, written by Peter Selinger 2001-2013
</metadata>
<g transform="translate(0.000000,500.000000) scale(0.100000,-0.100000)"
fill="#000000" stroke="none">
<path d="M2270 4520 c-510 -59 -996 -320 -1322 -710 -237 -282 -383 -599 -455
-982 -27 -147 -25 -524 5 -680 161 -853 798 -1489 1650 -1650 99 -19 152 -22
352 -22 202 0 252 3 352 22 855 162 1488 795 1650 1650 19 100 22 150 22 352
0 200 -3 253 -22 352 -160 850 -801 1492 -1645 1649 -127 23 -457 34 -587 19z
m369 -540 c321 -32 604 -155 845 -365 244 -214 407 -495 478 -829 29 -136 31
-416 4 -551 -108 -548 -480 -971 -1005 -1145 -156 -52 -285 -72 -456 -72 -699
-1 -1289 471 -1452 1162 -30 130 -42 369 -24 503 47 350 206 660 462 901 235
221 521 354 839 390 147 17 188 18 309 6z"/>
</g>
</svg>
